<svg xmlns="http://www.w3.org/2000/svg" version="1.1" xmlns:xlink="http://www.w3.org/1999/xlink" xmlns:svgjs="http://svgjs.com/svgjs" width="1440" height="560" preserveAspectRatio="none" viewBox="0 0 1440 560">
	<g mask="url(&quot;#SvgjsMask1003&quot;)" fill="none">
		<rect width="1440" height="560" x="0" y="0" fill="rgba(98, 0, 234, 1)"></rect>
		<path d="M0,503.821C122.021,504.324,249.481,613.618,355.287,552.837C460.203,492.567,441.317,334.51,488.604,223.138C534.242,115.65,621.266,26.212,628.375,-90.347C636.286,-220.048,606.669,-354.367,530.238,-459.454C450.723,-568.782,332.93,-657.393,199.622,-679.849C71.089,-701.5,-55.538,-640.556,-169.519,-577.328C-266.558,-523.498,-325.763,-429.066,-400.437,-346.981C-477.284,-262.508,-604.541,-202.107,-614.368,-88.333C-624.23,25.852,-491.455,98.546,-448.08,204.631C-401.981,317.38,-454.711,482.274,-353.409,549.915C-252.566,617.249,-121.256,503.321,0,503.821" fill="#4e00bb"></path>
		<path d="M1440 1095.3899999999999C1539.058 1101.4940000000001 1635.665 1042.194 1703.076 969.355 1764.1779999999999 903.3340000000001 1753.348 801.952 1788.29 719.059 1821.797 639.571 1899.012 579.456 1903.739 493.324 1908.829 400.58000000000004 1871.693 308.651 1814.845 235.195 1756.216 159.437 1674.467 101.33100000000002 1581.746 77.25799999999998 1490.488 53.565 1397.134 79.54700000000003 1305.824 103.03899999999999 1211.5430000000001 127.29500000000002 1111.155 146.498 1042.8809999999999 215.89499999999998 972.798 287.131 928.7370000000001 386.53999999999996 928.597 486.471 928.463 581.51 993.598 659.989 1042.142 741.6949999999999 1085.612 814.861 1133.3609999999999 881.623 1196.966 938.168 1270.567 1003.5989999999999 1341.706 1089.333 1440 1095.3899999999999" fill="#7a1aff"></path>
	</g>
	<defs>
		<mask id="SvgjsMask1003">
			<rect width="1440" height="560" fill="#ffffff"></rect>
		</mask>
	</defs>
</svg>