
        <svg xmlns="http://www.w3.org/2000/svg" xmlns:xlink="http://www.w3.org/1999/xlink" version="1.1" width="3310.880829015544" height="3202.0725388601036" viewBox="0 0 3310.880829015544 3202.0725388601036">
			
			<g transform="scale(15.544041450777202) translate(10, 10)">
				<defs id="SvgjsDefs1187"/><g id="SvgjsG1188" featureKey="rootContainer" transform="matrix(1,0,0,1,0,0)" fill="#000">    <path xmlns="http://www.w3.org/2000/svg" fill-rule="nonzero" d="             M0,0             H193             V186             H0,0             z             M4,4             v178             h185             v-178             z     "/></g><g id="SvgjsG1189" featureKey="4K7G0D-0" transform="matrix(0.859923053577106,0,0,0.859923053577106,41.96493277193052,14.000945425924726)" fill="#000"><path xmlns="http://www.w3.org/2000/svg" d="M33.406 0a1.001 1.001 0 0 0 .188 2c3.758 0 6.784 1.628 9.313 4.156 2.528 2.528 4.507 5.961 6 9.438.377.879.715 1.759 1.031 2.625-8.563 4.909-12.6 16.988-7.969 26.063l-11.969-4v-11.281a1 1 0 0 0-.438-.844l-12-8a1 1 0 0 0-.781-.156 1 1 0 0 0-.344 1.844l11.563 7.719v11.438a1 1 0 0 0 .688.938l13.313 4.438c-3.188 2.054-5.995 4.864-8.219 8.5l-8.469-2.813a1 1 0 0 0-.406-.063 1 1 0 0 0-.75.5l-11.813 19.688-11.656 3.875a1 1 0 1 0 .625 1.875l12-4a1 1 0 0 0 .531-.438l11.594-19.313 7.375 2.469c-3.03 5.774-4.813 13.363-4.813 23.031 0 .512.021 1.023.031 1.531l-15.438 6.875a1 1 0 0 0-.531 1.25l11.781 33.375-3.563 3.563a1.016 1.016 0 1 0 1.438 1.438l4-4a1 1 0 0 0 .219-1.063l-11.688-33.125 13.844-6.156c.905 19.296 8.897 35.414 19.719 41.719 4.5-3.7 8.188-9.994 8.188-17.094v-50c0-1.1.9-2 2-2s2 .9 2 2v50c0 7.1 3.688 13.494 8.188 17.094 10.821-6.305 18.814-22.422 19.719-41.719l13.844 6.156-11.688 33.125a1 1 0 0 0 .219 1.063l4 4a1.016 1.016 0 1 0 1.438-1.438l-3.563-3.563 11.781-33.375a1 1 0 0 0-.531-1.25l-15.438-6.875c.01-.508.031-1.019.031-1.531 0-9.668-1.783-17.257-4.813-23.031l7.375-2.469 11.594 19.313a1 1 0 0 0 .531.438l12 4a1 1 0 1 0 .625-1.875l-11.656-3.875-11.813-19.688a1 1 0 0 0-1-.5 1 1 0 0 0-.156.063l-8.469 2.813c-2.224-3.636-5.031-6.446-8.219-8.5l13.313-4.438a1 1 0 0 0 .688-.938v-11.438l11.563-7.719a1 1 0 0 0-.688-1.844 1 1 0 0 0-.438.156l-12 8a1 1 0 0 0-.438.844v11.281l-11.938 4c4.625-9.31.704-21.494-7.938-26.25.298-.806.618-1.621.969-2.438 1.493-3.476 3.472-6.909 6-9.438 2.528-2.528 5.555-4.156 9.313-4.156a1 1 0 1 0 0-2c-4.342 0-7.922 1.922-10.719 4.719-2.797 2.797-4.881 6.47-6.438 10.094-.344.8-.643 1.586-.938 2.375-1.869-.746-3.922-1.188-6.125-1.188-2.321 0-4.467.479-6.438 1.313-.307-.831-.637-1.656-1-2.5-1.557-3.624-3.641-7.297-6.438-10.094-2.797-2.797-6.377-4.719-10.719-4.719a1 1 0 0 0-.094 0 1.001 1.001 0 0 0-.094 0zm1.594 78c.6 0 1 .4 1 1 0 11.1 2.706 21.806 7.406 29.406.3.5.087 1.106-.313 1.406-.2.1-.3.188-.5.188-.4-.1-.706-.2-.906-.5-4.9-7.9-7.688-19-7.688-30.5 0-.6.4-1 1-1zm46 0c.6 0 1 .4 1 1 0 11.4-2.787 22.5-7.688 30.5-.2.3-.506.5-.906.5-.2 0-.4.013-.5-.188-.5-.3-.612-.906-.313-1.406 4.7-7.6 7.406-18.306 7.406-29.406 0-.6.4-1 1-1z" transform="translate(6)"/></g><g id="SvgjsG1190" featureKey="wPuqcM-0" transform="matrix(0.08020532052939722,0,0,0.08020532052939722,16.929419347000238,143.5781200339027)" fill="#000"><path d="M13.48 9.96 l-1.88 0 c-0.54 -2.52 -2.64 -2.98 -4.02 -2.98 c-2.6 0 -4.7 1.92 -4.7 5.7 c0 3.38 1.2 5.98 4.76 5.98 c1.26 0 3.44 -0.6 4.1 -3.94 l1.88 0 c-0.8 5.42 -5.2 5.66 -6.28 5.66 c-3.26 0 -6.46 -2.12 -6.46 -7.64 c0 -4.42 2.52 -7.48 6.7 -7.48 c3.7 0 5.62 2.3 5.9 4.7 z M24.259999999999998 12.879999999999999 l0 7.12 l-1.76 0 l0 -6.84 c0 -1.42 -0.4 -2.34 -2.08 -2.34 c-1.44 0 -2.92 0.84 -2.92 3.48 l0 5.7 l-1.76 0 l0 -14.36 l1.76 0 l0 5.3 l0.04 0 c0.5 -0.66 1.38 -1.7 3.06 -1.7 c1.62 0 3.66 0.66 3.66 3.64 z M28.42 12.719999999999999 l-1.62 0 c0.08 -2.5 1.74 -3.48 4.32 -3.48 c0.84 0 3.88 0.24 3.88 2.92 l0 6.02 c0 0.44 0.22 0.62 0.58 0.62 c0.16 0 0.38 -0.04 0.58 -0.08 l0 1.28 c-0.3 0.08 -0.56 0.2 -0.96 0.2 c-1.56 0 -1.8 -0.8 -1.86 -1.6 c-0.68 0.74 -1.74 1.7 -3.78 1.7 c-1.92 0 -3.28 -1.22 -3.28 -3.02 c0 -0.88 0.26 -2.92 3.18 -3.28 l2.9 -0.36 c0.42 -0.04 0.92 -0.2 0.92 -1.24 c0 -1.1 -0.8 -1.7 -2.46 -1.7 c-2 0 -2.28 1.22 -2.4 2.02 z M33.24 16.38 l0 -1.72 c-0.28 0.22 -0.72 0.38 -2.9 0.66 c-0.86 0.12 -2.24 0.38 -2.24 1.7 c0 1.14 0.58 1.82 1.9 1.82 c1.64 0 3.24 -1.06 3.24 -2.46 z M39.980000000000004 13.92 l0 6.08 l-1.76 0 l0 -10.46 l1.66 0 l0 1.74 l0.04 0 c0.7 -1.22 1.62 -2.04 2.94 -2.04 c0.22 0 0.32 0.02 0.46 0.06 l0 1.82 l-0.66 0 c-1.64 0 -2.68 1.28 -2.68 2.8 z M46.440000000000005 5.640000000000001 l0 14.36 l-1.76 0 l0 -14.36 l1.76 0 z M50.88 9.54 l0 10.46 l-1.76 0 l0 -10.46 l1.76 0 z M50.88 7.640000000000001 l-1.76 0 l0 -2 l1.76 0 l0 2 z M60.64 16.72 l1.76 0 c-0.06 0.5 -0.54 1.98 -1.86 2.86 c-0.48 0.32 -1.16 0.72 -2.84 0.72 c-2.94 0 -4.68 -2.22 -4.68 -5.24 c0 -3.24 1.56 -5.82 5.02 -5.82 c3.02 0 4.5 2.4 4.5 6.1 l-7.64 0 c0 2.18 1.02 3.44 3.04 3.44 c1.66 0 2.64 -1.28 2.7 -2.06 z M54.9 13.940000000000001 l5.82 0 c-0.1 -1.62 -0.78 -3.12 -2.92 -3.12 c-1.62 0 -2.9 1.5 -2.9 3.12 z M72.36 14.96 l0 5.04 l-1.94 0 l0 -14.36 l1.94 0 l0 6.96 l6.96 -6.96 l2.68 0 l-5.98 5.8 l6.14 8.56 l-2.52 0 l-5.02 -7.2 z M85.10000000000001 12.719999999999999 l-1.62 0 c0.08 -2.5 1.74 -3.48 4.32 -3.48 c0.84 0 3.88 0.24 3.88 2.92 l0 6.02 c0 0.44 0.22 0.62 0.58 0.62 c0.16 0 0.38 -0.04 0.58 -0.08 l0 1.28 c-0.3 0.08 -0.56 0.2 -0.96 0.2 c-1.56 0 -1.8 -0.8 -1.86 -1.6 c-0.68 0.74 -1.74 1.7 -3.78 1.7 c-1.92 0 -3.28 -1.22 -3.28 -3.02 c0 -0.88 0.26 -2.92 3.18 -3.28 l2.9 -0.36 c0.42 -0.04 0.92 -0.2 0.92 -1.24 c0 -1.1 -0.8 -1.7 -2.46 -1.7 c-2 0 -2.28 1.22 -2.4 2.02 z M89.92000000000002 16.38 l0 -1.72 c-0.28 0.22 -0.72 0.38 -2.9 0.66 c-0.86 0.12 -2.24 0.38 -2.24 1.7 c0 1.14 0.58 1.82 1.9 1.82 c1.64 0 3.24 -1.06 3.24 -2.46 z M98.40000000000002 18.06 l2.8 -8.52 l1.94 0 c-1.22 3.42 -2.42 6.84 -3.76 10.26 c-1.66 4.24 -1.84 4.48 -4.1 4.48 c-0.26 0 -0.46 -0.08 -0.74 -0.16 l0 -1.6 c0.22 0.08 0.58 0.18 1.06 0.18 c0.92 0 1.02 -0.26 1.86 -2.42 l-3.88 -10.74 l2 0 l2.78 8.52 l0.04 0 z M106.46000000000001 5.640000000000001 l0 14.36 l-1.76 0 l0 -14.36 l1.76 0 z M108.50000000000001 14.76 c0 -2.7 1.52 -5.52 4.86 -5.52 s4.86 2.82 4.86 5.52 s-1.52 5.52 -4.86 5.52 s-4.86 -2.82 -4.86 -5.52 z M110.32000000000001 14.76 c0 1.4 0.52 4 3.04 4 s3.04 -2.6 3.04 -4 s-0.52 -4 -3.04 -4 s-3.04 2.6 -3.04 4 z M122.22000000000001 13.92 l0 6.08 l-1.76 0 l0 -10.46 l1.66 0 l0 1.74 l0.04 0 c0.7 -1.22 1.62 -2.04 2.94 -2.04 c0.22 0 0.32 0.02 0.46 0.06 l0 1.82 l-0.66 0 c-1.64 0 -2.68 1.28 -2.68 2.8 z"/></g><g id="SvgjsG1191" featureKey="Li3fkV-0" transform="matrix(1.0719549077561996,0,0,1.0719549077561996,15.413506716074908,150.36151847329518)" fill="#000"><path d="M3.42 7.300000000000001 l0 4.42 l3.5 0 c1.86 0 3 -0.56 3 -2.32 c0 -1.34 -0.82 -2.1 -2.98 -2.1 l-3.52 0 z M1.48 20 l0 -14.36 l6.32 0 c2.68 0 4.06 1.66 4.06 3.62 c0 0.94 -0.34 2.26 -1.92 3 c0.94 0.38 2.6 1.04 2.6 3.5 c0 2.3 -1.7 4.24 -4.88 4.24 l-6.18 0 z M3.42 13.3 l0 5.04 l4.14 0 c2.02 0 3.04 -1.02 3.04 -2.62 c0 -2.02 -1.78 -2.42 -3.36 -2.42 l-3.82 0 z M37.608000000000004 5.640000000000001 l1.94 0 l0 9.32 c0 2.94 -1.84 5.42 -5.78 5.42 c-3.86 0 -5.52 -2.48 -5.52 -5.16 l0 -9.58 l1.94 0 l0 9.04 c0 3.12 1.9 3.98 3.64 3.98 c1.78 0 3.78 -0.82 3.78 -3.94 l0 -9.08 z M62.21600000000001 13.98 l0 -1.66 l6.3 0 l0 7.68 l-1.26 0 l-0.46 -1.86 c-0.98 1.36 -2.78 2.24 -4.74 2.24 c-2.46 0 -3.66 -0.9 -4.4 -1.62 c-2.2 -2.08 -2.26 -4.54 -2.26 -6.06 c0 -3.5 2.12 -7.44 6.8 -7.44 c2.68 0 5.66 1.52 6.08 4.74 l-1.88 0 c-0.62 -2.5 -2.72 -3.02 -4.3 -3.02 c-2.58 0 -4.7 2.06 -4.7 5.82 c0 2.92 0.96 5.92 4.78 5.92 c0.72 0 1.88 -0.08 2.94 -0.92 c1.26 -1 1.58 -2.28 1.58 -3.82 l-4.48 0 z M86.784 5.640000000000001 l0 12.64 l7.28 0 l0 1.72 l-9.22 0 l0 -14.36 l1.94 0 z M120.55200000000002 12.82 c0 -3.38 -1.88 -5.84 -5 -5.84 s-5 2.46 -5 5.84 s1.88 5.84 5 5.84 s5 -2.46 5 -5.84 z M122.55200000000002 12.82 c0 3.1 -1.64 7.56 -7 7.56 s-7 -4.46 -7 -7.56 s1.64 -7.56 7 -7.56 s7 4.46 7 7.56 z M144.44000000000003 13.98 l0 -1.66 l6.3 0 l0 7.68 l-1.26 0 l-0.46 -1.86 c-0.98 1.36 -2.78 2.24 -4.74 2.24 c-2.46 0 -3.66 -0.9 -4.4 -1.62 c-2.2 -2.08 -2.26 -4.54 -2.26 -6.06 c0 -3.5 2.12 -7.44 6.8 -7.44 c2.68 0 5.66 1.52 6.08 4.74 l-1.88 0 c-0.62 -2.5 -2.72 -3.02 -4.3 -3.02 c-2.58 0 -4.7 2.06 -4.7 5.82 c0 2.92 0.96 5.92 4.78 5.92 c0.72 0 1.88 -0.08 2.94 -0.92 c1.26 -1 1.58 -2.28 1.58 -3.82 l-4.48 0 z"/></g>
			</g>
		</svg>
	